<svg width="31" height="24" viewBox="0 0 31 24" fill="none" xmlns="http://www.w3.org/2000/svg">
<path d="M26.1813 0.765168C26.717 0.268959 27.4298 -0.00536544 28.1695 7.95325e-05C28.9091 0.00552451 29.6176 0.290314 30.1455 0.794353C30.6734 1.29839 30.9795 1.98226 30.999 2.70165C31.0186 3.42103 30.7501 4.11968 30.2503 4.65016L15.0771 23.1131C14.8162 23.3865 14.5013 23.6059 14.1512 23.7582C13.8011 23.9106 13.4231 23.9926 13.0397 23.9995C12.6563 24.0064 12.2754 23.938 11.9198 23.7985C11.5642 23.6589 11.2412 23.4509 10.97 23.1871L0.907764 13.3969C0.627547 13.1429 0.402792 12.8365 0.246907 12.4961C0.0910224 12.1557 0.00720065 11.7883 0.000443864 11.4157C-0.00631292 11.0431 0.0641338 10.673 0.20758 10.3274C0.351026 9.98189 0.564534 9.66801 0.835366 9.4045C1.1062 9.14099 1.4288 8.93326 1.78394 8.79369C2.13908 8.65412 2.51947 8.58558 2.90243 8.59215C3.28538 8.59873 3.66305 8.68028 4.01291 8.83195C4.36277 8.98362 4.67764 9.2023 4.93875 9.47494L12.9019 17.219L26.109 0.846569C26.1328 0.818082 26.1544 0.790906 26.1813 0.765168Z" fill="#298FEB"/>
</svg>
